<svg xmlns="http://www.w3.org/2000/svg" viewBox="0 0 576 512"><!--!Font Awesome Free 6.6.0 by @fontawesome - https://fontawesome.com License - https://fontawesome.com/license/free Copyright 2024 Fonticons, Inc.--><path d="M392.9 32.4C400.6 31.1 408.6 32.9 414.1 37.4C498.2 96.1 544 173.7 544 255.1C544 338.2 498.2 415.9 414.1 474.6C409.3 478.6 402.4 480.5 395.5 479.9C388.5 479.3 382 476.3 377.1 471.4L193.7 288.7C188.1 283.2 185 275.7 184.1 267.8C184.1 260 188.1 252.5 193.6 246.9C199.2 241.4 206.7 238.2 214.5 238.2C222.4 238.2 229.9 241.3 235.4 246.8L400.5 411.2C455.1 366.5 484.8 312 484.8 255.1C484.8 193.5 447.9 132.9 380.9 85.8C374.5 81.2 370.1 74.4 368.8 66.6C367.4 58.9 369.2 50.9 373.8 44.5C378.3 38.1 385.2 33.8 392.9 32.4V32.4zM186.9 479.6C179.2 480.9 171.3 479.1 164.8 474.6C81.7 415.9 35.8 338.2 35.8 255.1C35.8 173.7 81.7 96.1 164.8 37.4C170.5 33.4 177.4 31.5 184.4 32.1C191.3 32.7 197.8 35.7 202.7 40.6L386.1 223.3C391.7 228.8 394.8 236.3 394.8 244.2C394.9 251.1 391.8 259.5 386.2 265.1C380.7 270.6 373.2 273.8 365.3 273.8C357.5 273.8 349.1 270.7 344.4 265.2L179.3 100.7C124.7 145.9 95 199.9 95 255.1C95 318.5 131.9 379.1 198.1 426.2C205.4 430.8 209.7 437.6 211.1 445.4C212.4 453.1 210.6 461.1 206.1 467.5C201.6 473.9 194.7 478.2 186.9 479.6V479.6z"/></svg>