<?xml version="1.0" standalone="no"?>
<!DOCTYPE svg PUBLIC "-//W3C//DTD SVG 20010904//EN"
 "http://www.w3.org/TR/2001/REC-SVG-20010904/DTD/svg10.dtd">
<svg version="1.0" xmlns="http://www.w3.org/2000/svg"
 width="576.000000pt" height="576.000000pt" viewBox="0 0 576.000000 576.000000"
 preserveAspectRatio="xMidYMid meet">
<metadata>
Created by potrace 1.14, written by Peter Selinger 2001-2017
</metadata>
<g transform="translate(0.000000,576.000000) scale(0.100000,-0.100000)"
fill="#000000" stroke="none">
<path d="M1710 5098 c-24 -10 -59 -30 -77 -44 -17 -13 -36 -24 -42 -24 -6 0
-11 -4 -11 -9 0 -5 -15 -19 -32 -30 -18 -11 -46 -32 -63 -45 -16 -14 -35 -29
-40 -33 -54 -40 -214 -184 -299 -269 -147 -147 -327 -371 -416 -519 -13 -22
-26 -42 -29 -45 -6 -5 -20 -31 -87 -159 -62 -118 -120 -262 -160 -396 -12 -37
-55 -216 -60 -244 -3 -18 -7 -43 -10 -55 -5 -25 -15 -114 -20 -176 -9 -123 -4
-352 11 -440 2 -14 7 -43 10 -65 3 -23 8 -51 10 -63 11 -47 15 -69 26 -122 24
-117 104 -331 180 -485 83 -168 85 -171 137 -247 17 -26 32 -51 32 -54 0 -8
158 -218 203 -270 99 -115 259 -277 361 -363 27 -24 55 -48 62 -54 57 -51 255
-197 294 -217 55 -28 147 -35 213 -16 190 55 272 288 158 448 -14 20 -59 60
-99 90 -40 29 -83 61 -95 71 -12 10 -37 31 -56 45 -122 95 -345 318 -431 432
-14 18 -30 38 -36 44 -17 18 -111 161 -144 218 -54 95 -127 251 -149 323 -12
39 -27 79 -32 90 -5 11 -11 31 -14 45 -11 55 -34 167 -40 200 -13 71 -13 364
1 445 18 110 23 136 31 165 3 14 7 30 8 35 6 25 58 174 72 205 50 110 90 191
123 245 20 33 39 68 43 78 3 9 11 17 17 17 5 0 10 5 10 11 0 16 109 159 194
254 94 105 155 166 250 249 l78 68 52 -51 c28 -28 409 -407 846 -842 615 -613
805 -796 840 -812 63 -28 179 -28 240 0 61 27 127 96 155 162 17 42 22 70 20
121 -5 110 -25 138 -284 395 -126 127 -553 552 -948 946 -561 559 -729 720
-767 739 -67 32 -173 36 -236 8z"/>
<path d="M3893 5105 c-188 -57 -267 -275 -160 -442 16 -26 72 -76 144 -131
130 -98 144 -109 240 -197 139 -126 243 -239 348 -378 36 -47 65 -91 65 -97 0
-5 3 -10 8 -10 8 0 23 -26 89 -145 117 -214 174 -386 210 -630 9 -67 9 -306
-1 -375 -4 -30 -9 -66 -11 -80 -5 -39 -35 -171 -41 -181 -3 -5 -7 -19 -10 -31
-9 -38 -12 -53 -14 -55 -2 -2 -3 -6 -5 -10 -1 -5 -5 -17 -10 -28 -4 -11 -12
-33 -19 -50 -42 -112 -202 -394 -263 -466 -7 -7 -40 -48 -74 -89 -73 -89 -196
-217 -286 -297 -36 -32 -72 -64 -80 -72 -13 -12 -24 -5 -79 50 -36 35 -415
412 -842 837 -849 844 -825 823 -944 827 -134 4 -250 -75 -300 -207 -14 -38
-17 -63 -13 -102 15 -118 -13 -87 978 -1075 507 -506 938 -934 957 -952 69
-64 183 -92 273 -68 34 9 151 82 217 136 8 7 31 25 51 40 163 128 381 334 484
458 22 27 45 53 51 59 27 28 168 224 216 303 182 295 306 624 344 918 3 28 8
59 10 70 3 17 16 218 16 250 0 38 -13 234 -16 251 -2 12 -7 45 -11 75 -7 61
-30 168 -52 249 -157 570 -536 1092 -1102 1518 -119 89 -138 103 -181 123 -36
17 -138 19 -187 4z"/>
</g>
</svg>
